<svg width="24" height="24" viewBox="0 0 24 24" fill="none" xmlns="http://www.w3.org/2000/svg">
<path d="M23.1064 9.38175H22.1667V9.33333H11.6667V14H18.2601C17.2982 16.7166 14.7134 18.6667 11.6667 18.6667C7.80092 18.6667 4.66667 15.5324 4.66667 11.6667C4.66667 7.80092 7.80092 4.66667 11.6667 4.66667C13.4511 4.66667 15.0745 5.33983 16.3106 6.43942L19.6105 3.1395C17.5268 1.19758 14.7397 0 11.6667 0C5.22375 0 0 5.22375 0 11.6667C0 18.1096 5.22375 23.3333 11.6667 23.3333C18.1096 23.3333 23.3333 18.1096 23.3333 11.6667C23.3333 10.8844 23.2528 10.1208 23.1064 9.38175Z" fill="#FFC107"/>
<path d="M1.34521 6.23642L5.1783 9.0475C6.21546 6.47967 8.7273 4.66667 11.6667 4.66667C13.4511 4.66667 15.0745 5.33983 16.3106 6.43942L19.6105 3.1395C17.5269 1.19758 14.7397 0 11.6667 0C7.18555 0 3.29938 2.52992 1.34521 6.23642Z" fill="#FF3D00"/>
<path d="M11.6668 23.3333C14.6803 23.3333 17.4184 22.1801 19.4887 20.3047L15.8779 17.2492C14.6672 18.1699 13.1878 18.6679 11.6668 18.6667C8.63227 18.6667 6.05568 16.7317 5.08502 14.0315L1.28052 16.9627C3.21135 20.741 7.13252 23.3333 11.6668 23.3333Z" fill="#4CAF50"/>
<path d="M23.1065 9.38179H22.1667V9.33337H11.6667V14H18.2602C17.8 15.2929 16.9712 16.4227 15.8761 17.2498L15.8778 17.2486L19.4887 20.3041C19.2332 20.5363 23.3334 17.5 23.3334 11.6667C23.3334 10.8845 23.2529 10.1209 23.1065 9.38179Z" fill="#1976D2"/>
</svg>
